<svg xmlns="http://www.w3.org/2000/svg" width="27" height="27" fill="none" viewBox="0 0 27 27">
  <path fill="#fff" stroke="#fff" stroke-width="1.644" d="M8.125 17.46h14.823c1.68 0 3.052-1.274 3.052-2.836V8.767c0-.01 0-.02-.006-.03 0-.011-.005-.026-.005-.037 0-.01-.006-.02-.006-.03-.005-.01-.005-.021-.01-.037-.006-.01-.006-.02-.012-.03-.005-.01-.005-.02-.01-.031a.152.152 0 0 1-.017-.036c-.006-.01-.011-.02-.017-.026a4.642 4.642 0 0 1-.017-.03l-.016-.026c-.006-.01-.017-.02-.022-.031a.102.102 0 0 0-.022-.026c-.006-.01-.017-.015-.023-.026-.005-.01-.016-.015-.022-.025-.005-.01-.016-.016-.022-.02l-.027-.026c-.011-.006-.017-.016-.028-.021-.011-.005-.022-.015-.033-.02l-.028-.016c-.01-.005-.022-.01-.033-.02l-.033-.016-.033-.015-.034-.016c-.01-.005-.022-.005-.033-.01a.108.108 0 0 0-.038-.01c-.011 0-.023-.005-.028-.005-.017-.006-.028-.006-.044-.006-.006 0-.011-.005-.022-.005L6.57 5.73V3.296c0-.026 0-.051-.005-.072 0-.005 0-.01-.006-.02 0-.016-.005-.031-.005-.047-.006-.015-.006-.025-.011-.04 0-.011-.006-.016-.006-.026l-.016-.047c0-.005-.006-.015-.006-.02a.15.15 0 0 0-.022-.041c-.006-.005-.006-.016-.011-.02a.107.107 0 0 0-.022-.032l-.017-.025-.016-.026c-.006-.01-.017-.02-.022-.03l-.017-.016-.033-.031-.017-.016a.236.236 0 0 0-.038-.03c-.006-.006-.017-.01-.023-.016-.01-.01-.022-.015-.033-.026A.45.45 0 0 0 6.2 2.69c-.006-.005-.011-.005-.017-.01l-.071-.031-4.075-1.593c-.382-.15-.819.015-.979.37-.16.354.017.76.398.91l3.616 1.417v15.198c0 1.438 1.161 2.63 2.66 2.81A2.659 2.659 0 0 0 7.3 23.2c0 1.546 1.355 2.8 3.014 2.8 1.658 0 3.013-1.259 3.013-2.8 0-.514-.15-1.002-.415-1.413h6.712a2.617 2.617 0 0 0-.415 1.413c0 1.546 1.355 2.8 3.014 2.8 1.658 0 3.013-1.259 3.013-2.8 0-1.542-1.355-2.8-3.013-2.8H8.125c-.862 0-1.56-.653-1.56-1.45v-1.88c.454.247.99.39 1.56.39Zm3.716 5.735c0 .78-.686 1.413-1.521 1.413-.835 0-1.52-.637-1.52-1.413s.685-1.413 1.52-1.413 1.52.632 1.52 1.413Zm11.909 0c0 .78-.686 1.413-1.52 1.413-.836 0-1.521-.637-1.521-1.413s.685-1.413 1.52-1.413 1.52.632 1.52 1.413Zm-.802-7.122H8.125c-.862 0-1.56-.652-1.56-1.449V7.128l17.942 2.297v5.194c0 .807-.702 1.454-1.559 1.454Z"/>
</svg>
