<svg xmlns="http://www.w3.org/2000/svg" width="63" height="46" fill="none" viewBox="0 0 63 46">
  <path fill="#D44" d="M22.32 16.816c1.888.352 3.44 1.296 4.656 2.832 1.216 1.536 1.824 3.296 1.824 5.28 0 1.792-.448 3.376-1.344 4.752-.864 1.344-2.128 2.4-3.792 3.168C22 33.616 20.032 34 17.76 34H3.312V.496h13.824c2.272 0 4.224.368 5.856 1.104 1.664.736 2.912 1.76 3.744 3.072.864 1.312 1.296 2.8 1.296 4.464 0 1.952-.528 3.584-1.584 4.896-1.024 1.312-2.4 2.24-4.128 2.784ZM10.032 14.32h6.144c1.6 0 2.832-.352 3.696-1.056.864-.736 1.296-1.776 1.296-3.12s-.432-2.384-1.296-3.12c-.864-.736-2.096-1.104-3.696-1.104h-6.144v8.4ZM16.8 28.528c1.632 0 2.896-.384 3.792-1.152.928-.768 1.392-1.856 1.392-3.264 0-1.44-.48-2.56-1.44-3.36-.96-.832-2.256-1.248-3.888-1.248h-6.624v9.024H16.8Zm12.88-.328c0-3.296.736-6.24 2.208-8.832 1.504-2.624 3.536-4.656 6.096-6.096 2.592-1.472 5.488-2.208 8.688-2.208 3.744 0 7.024.96 9.84 2.88s4.784 4.576 5.904 7.968h-7.728c-.768-1.6-1.856-2.8-3.264-3.6-1.376-.8-2.976-1.2-4.8-1.2-1.952 0-3.696.464-5.232 1.392-1.504.896-2.688 2.176-3.552 3.84-.832 1.664-1.248 3.616-1.248 5.856 0 2.208.416 4.16 1.248 5.856.864 1.664 2.048 2.96 3.552 3.888 1.536.896 3.28 1.344 5.232 1.344 1.824 0 3.424-.4 4.8-1.2 1.408-.832 2.496-2.048 3.264-3.648h7.728c-1.12 3.424-3.088 6.096-5.904 8.016-2.784 1.888-6.064 2.832-9.84 2.832-3.2 0-6.096-.72-8.688-2.16-2.56-1.472-4.592-3.504-6.096-6.096-1.472-2.592-2.208-5.536-2.208-8.832Z"/>
</svg>
