<svg xmlns="http://www.w3.org/2000/svg" width="27" height="27" fill="none" viewBox="0 0 27 27">
  <path fill="#fff" stroke="#fff" stroke-width="1.774" d="m2.272 25.781 6.076-6.075a10.617 10.617 0 0 0 6.99 2.616c5.88 0 10.66-4.784 10.66-10.66 0-5.881-4.785-10.66-10.66-10.66-5.876 0-10.66 4.785-10.66 10.66 0 2.672.987 5.117 2.616 6.99L1.22 24.728a.753.753 0 0 0-.222.526.75.75 0 0 0 1.275.527ZM15.338 2.494c5.055 0 9.162 4.113 9.162 9.163 0 5.055-4.113 9.163-9.162 9.163-5.05 0-9.169-4.108-9.169-9.163 0-5.05 4.113-9.163 9.169-9.163Z"/>
</svg>
