<svg xmlns="http://www.w3.org/2000/svg" width="27" height="27" fill="none" viewBox="0 0 27 27">
  <path fill="#fff" stroke="#fff" stroke-width="1.657" d="M13.393 14.47h.195c1.784-.025 3.226-.558 4.291-1.578 2.343-2.247 1.954-6.099 1.911-6.466-.152-2.76-1.686-4.08-2.952-4.696-.943-.46-2.045-.71-3.274-.73h-.104c-.675 0-2.002.093-3.274.71-1.278.615-2.836 1.935-2.988 4.716-.043.367-.433 4.219 1.91 6.466 1.06 1.02 2.502 1.553 4.285 1.579Zm-4.57-7.915c0-.016.006-.031.006-.041.2-3.712 3.298-4.111 4.625-4.111h.073c1.644.031 4.437.6 4.626 4.11 0 .016 0 .032.006.042.006.036.432 3.557-1.503 5.41-.767.735-1.79 1.098-3.135 1.108h-.06c-1.34-.01-2.368-.373-3.129-1.108-1.93-1.843-1.515-5.379-1.51-5.41Z"/>
  <path fill="#fff" stroke="#fff" stroke-width="1.657" d="M25.998 20.86v-.016c0-.042-.006-.083-.006-.13-.036-1.025-.115-3.422-2.757-4.188l-.06-.015c-2.746-.596-5.028-1.942-5.052-1.957-.372-.223-.883-.145-1.145.17-.261.316-.17.751.201.974.104.062 2.526 1.496 5.557 2.159 1.418.43 1.576 1.718 1.619 2.899 0 .046 0 .088.006.13.006.465-.03 1.185-.128 1.599-.986.476-4.85 2.122-10.73 2.122-5.855 0-9.744-1.651-10.736-2.127-.098-.415-.14-1.134-.128-1.6 0-.041.006-.083.006-.13.043-1.18.2-2.469 1.619-2.899 3.03-.662 5.453-2.102 5.557-2.158.371-.223.462-.658.2-.974-.261-.316-.772-.393-1.144-.17-.024.015-2.294 1.36-5.051 1.956a.82.82 0 0 0-.061.016c-2.642.771-2.72 3.168-2.757 4.188 0 .047 0 .088-.006.13v.015c-.006.27-.013 1.652.31 2.345.06.135.17.249.317.326C1.81 23.63 6.187 26 13.509 26c7.322 0 11.698-2.376 11.88-2.475a.733.733 0 0 0 .317-.326c.305-.688.298-2.07.292-2.34Z"/>
</svg>
